<?xml version="1.0" standalone="no"?>
<!DOCTYPE svg PUBLIC "-//W3C//DTD SVG 20010904//EN"
 "http://www.w3.org/TR/2001/REC-SVG-20010904/DTD/svg10.dtd">
<svg version="1.0" xmlns="http://www.w3.org/2000/svg"
 width="188.000000pt" height="188.000000pt" viewBox="0 0 188.000000 188.000000"
 preserveAspectRatio="xMidYMid meet">
<metadata>
Created by potrace 1.14, written by Peter Selinger 2001-2017
</metadata>
<g transform="translate(0.000000,188.000000) scale(0.100000,-0.100000)"
fill="#000000" stroke="none">
<path d="M1685 1728 c-80 -28 -196 -122 -386 -312 -108 -108 -202 -196 -209
-196 -9 0 -7 5 6 15 18 13 15 14 -33 16 -29 1 -57 3 -63 4 -5 1 -14 3 -19 4
-4 0 7 17 25 37 19 19 34 39 34 44 0 10 -51 60 -60 60 -12 0 -82 -75 -96 -103
-15 -28 -17 -28 -72 -22 -31 3 -77 8 -102 10 -25 2 -58 7 -75 9 -16 3 -57 8
-90 11 -33 4 -70 8 -83 10 -13 2 -51 7 -85 10 -34 3 -80 8 -102 10 -51 5 -106
-12 -125 -39 -8 -12 -15 -22 -15 -24 0 -1 44 -18 97 -36 54 -19 126 -48 160
-65 77 -37 247 -101 269 -101 9 0 38 -21 65 -46 27 -26 59 -53 72 -62 12 -8
22 -18 22 -23 0 -5 -42 -52 -94 -104 -52 -52 -118 -127 -147 -166 l-53 -70
-45 6 c-49 6 -171 24 -209 30 -14 2 -33 -6 -52 -23 l-30 -28 111 -68 c61 -38
107 -71 103 -75 -5 -3 -10 -13 -12 -21 -2 -8 -11 -23 -19 -32 -9 -10 -13 -18
-8 -18 4 0 0 -11 -9 -25 -9 -14 -14 -25 -12 -25 10 0 62 24 76 36 8 6 25 15
37 18 18 6 28 -5 74 -81 82 -138 73 -129 103 -96 24 26 26 33 20 83 -4 30 -8
63 -10 74 -2 10 -6 44 -10 75 -3 31 -8 59 -10 63 -3 4 31 34 73 66 43 33 120
102 172 153 l94 92 19 -24 c11 -13 40 -48 66 -77 25 -29 46 -61 47 -70 2 -24
86 -244 100 -262 20 -24 97 -239 90 -250 -9 -14 17 -12 36 3 16 12 51 82 44
89 -2 2 -6 32 -9 68 -3 36 -8 85 -11 110 -3 25 -7 61 -9 80 -2 19 -7 60 -11
90 -4 30 -9 64 -10 75 -1 11 -6 56 -10 100 -12 112 -13 108 15 122 31 15 100
83 100 97 0 14 -10 26 -37 49 -22 19 -22 19 -62 -21 l-41 -40 -1 34 c-1 19 -3
39 -4 44 -1 6 -3 22 -4 36 -1 24 -3 25 -18 13 -54 -43 46 67 193 211 91 91
186 191 211 222 87 114 126 217 87 232 -19 7 -21 7 -59 -6z"/>
</g>
</svg>
